<svg width="300" height="300" viewBox="0 0 300 300" xmlns="http://www.w3.org/2000/svg">
  <!-- Wireframe sphere with grid lines -->
  <defs>
    <radialGradient id="sphereGlow" cx="50%" cy="50%" r="50%">
      <stop offset="0%" style="stop-color:currentColor;stop-opacity:0.3" />
      <stop offset="100%" style="stop-color:currentColor;stop-opacity:0" />
    </radialGradient>
  </defs>

  <!-- Glow effect -->
  <circle cx="150" cy="150" r="120" fill="url(#sphereGlow)" opacity="0.5"/>

  <!-- Main sphere outline -->
  <circle cx="150" cy="150" r="100" fill="none" stroke="currentColor" stroke-width="1.5" opacity="0.9"/>

  <!-- Horizontal latitude lines -->
  <ellipse cx="150" cy="150" rx="100" ry="20" fill="none" stroke="currentColor" stroke-width="1" opacity="0.7"/>
  <ellipse cx="150" cy="150" rx="100" ry="40" fill="none" stroke="currentColor" stroke-width="1" opacity="0.7"/>
  <ellipse cx="150" cy="150" rx="100" ry="60" fill="none" stroke="currentColor" stroke-width="1" opacity="0.7"/>
  <ellipse cx="150" cy="150" rx="100" ry="80" fill="none" stroke="currentColor" stroke-width="1" opacity="0.7"/>

  <!-- Vertical longitude lines -->
  <ellipse cx="150" cy="150" rx="20" ry="100" fill="none" stroke="currentColor" stroke-width="1" opacity="0.7"/>
  <ellipse cx="150" cy="150" rx="40" ry="100" fill="none" stroke="currentColor" stroke-width="1" opacity="0.7"/>
  <ellipse cx="150" cy="150" rx="60" ry="100" fill="none" stroke="currentColor" stroke-width="1" opacity="0.7"/>
  <ellipse cx="150" cy="150" rx="80" ry="100" fill="none" stroke="currentColor" stroke-width="1" opacity="0.7"/>

  <!-- Diagonal grid lines (angled ellipses) -->
  <ellipse cx="150" cy="150" rx="100" ry="50" fill="none" stroke="currentColor" stroke-width="1" opacity="0.6" transform="rotate(30 150 150)"/>
  <ellipse cx="150" cy="150" rx="100" ry="50" fill="none" stroke="currentColor" stroke-width="1" opacity="0.6" transform="rotate(60 150 150)"/>
  <ellipse cx="150" cy="150" rx="100" ry="50" fill="none" stroke="currentColor" stroke-width="1" opacity="0.6" transform="rotate(120 150 150)"/>
  <ellipse cx="150" cy="150" rx="100" ry="50" fill="none" stroke="currentColor" stroke-width="1" opacity="0.6" transform="rotate(150 150 150)"/>

  <!-- Center horizontal line -->
  <line x1="50" y1="150" x2="250" y2="150" stroke="currentColor" stroke-width="1.5" opacity="0.8"/>

  <!-- Center vertical line -->
  <ellipse cx="150" cy="150" rx="0.5" ry="100" fill="none" stroke="currentColor" stroke-width="1.5" opacity="0.8"/>
</svg>
